# xmcd
#
# Track frame offsets:
#	150
#	20415
#	34992
#	49127
#	66613
#	83935
#	99108
#	113059
#	130807
#	146306
#	156749
#	174532
#	190640
#	203344
#	218238
#	232345
#
# Disc length: 3418 seconds
#
# Revision: 1
# Processed by: cddbd v1.5.2PL0 Copyright (c) Steve Scherf et al.
# Submitted via: EZCDAudioConverter 1.2.3.1
#
DISCID=e30d5810
DTITLE=Hospital de Cancer de Barretos - DIREITO DE VIVER 10 CD 02
DYEAR=2011
DGENRE=SERTANEJO
TTITLE0=Padre Fábio de Melo - SOU UM ZÉ DA SILVA E OUTROS TANTOS
TTITLE1=Ataíde e Alexandre - DEUS ME LIVRE
TTITLE2=Chitãozinho e Xororó - SE FOR PRA SER FELIZ
TTITLE3=Daniel - DISPARADA
TTITLE4=Eduardo Costa - AMORES IMORTAIS
TTITLE5=Gino e Geno - TÔ VOLTANDO
TTITLE6=Jorge e Mateus - DE TANTO TE QUERER
TTITLE7=KLB - JURO POR DEUS
TTITLE8=Leonardo - ESSE ALGUÉM SOU EU
TTITLE9=Milionario e José Rico - LÁGRIMAS QUE CHORAM
TTITLE10=Rick e Renner - TUA PALAVRA
TTITLE11=Rionegro e Solimões - AMOR DE PRIMAVERA
TTITLE12=Roberta Miranda - REI DOS REIS
TTITLE13=Victor e Leo - BORBOLETAS
TTITLE14=Zé Henrique e Gabriel - O QUE COMBINA COMIGO É VOCÊ
TTITLE15=Todos os Artistas - DIA DO BEM
EXTD=
EXTT0=
EXTT1=
EXTT2=
EXTT3=
EXTT4=
EXTT5=
EXTT6=
EXTT7=
EXTT8=
EXTT9=
EXTT10=
EXTT11=
EXTT12=
EXTT13=
EXTT14=
EXTT15=
PLAYORDER=
